<svg xmlns="http://www.w3.org/2000/svg" width="32" height="32" viewBox="0 0 32 32">
  <defs>
    <linearGradient id="rocketGradient1" x1="0%" y1="0%" x2="100%" y2="100%">
      <stop offset="0%" stop-color="#00ff00"/>
      <stop offset="50%" stop-color="#0080ff"/>
      <stop offset="100%" stop-color="#8000ff"/>
    </linearGradient>
    <linearGradient id="rocketGradient2" x1="0%" y1="0%" x2="100%" y2="100%">
      <stop offset="0%" stop-color="#ff4444"/>
      <stop offset="50%" stop-color="#ff8844"/>
      <stop offset="100%" stop-color="#ffaa00"/>
    </linearGradient>
    <radialGradient id="exhaustGradient" cx="50%" cy="100%" r="60%">
      <stop offset="0%" stop-color="#ffffff" stop-opacity="0.9"/>
      <stop offset="30%" stop-color="#ffff00" stop-opacity="0.8"/>
      <stop offset="70%" stop-color="#ff4444" stop-opacity="0.6"/>
      <stop offset="100%" stop-color="#ff0000" stop-opacity="0.3"/>
    </radialGradient>
  </defs>
  
  <!-- Rocket Body -->
  <path d="M16 2 L20 8 L20 20 L16 24 L12 20 L12 8 Z" fill="url(#rocketGradient1)" stroke="#ffffff" stroke-width="0.5"/>
  
  <!-- Rocket Nose Cone -->
  <path d="M16 2 L12 8 L20 8 Z" fill="url(#rocketGradient2)" stroke="#ffffff" stroke-width="0.5"/>
  
  <!-- Rocket Fins -->
  <path d="M12 18 L8 22 L12 22 Z" fill="url(#rocketGradient1)" stroke="#ffffff" stroke-width="0.3"/>
  <path d="M20 18 L24 22 L20 22 Z" fill="url(#rocketGradient1)" stroke="#ffffff" stroke-width="0.3"/>
  
  <!-- Engine Exhaust -->
  <ellipse cx="16" cy="26" rx="4" ry="3" fill="url(#exhaustGradient)"/>
  <ellipse cx="16" cy="28" rx="3" ry="2" fill="url(#exhaustGradient)" opacity="0.7"/>
  
  <!-- Rocket Window -->
  <circle cx="16" cy="12" r="2" fill="#87ceeb" stroke="#ffffff" stroke-width="0.3" opacity="0.8"/>
  
  <!-- Stars around rocket -->
  <circle cx="6" cy="6" r="0.5" fill="#ffffff" opacity="0.8"/>
  <circle cx="26" cy="8" r="0.5" fill="#ffffff" opacity="0.6"/>
  <circle cx="4" cy="14" r="0.5" fill="#ffffff" opacity="0.7"/>
  <circle cx="28" cy="16" r="0.5" fill="#ffffff" opacity="0.9"/>
</svg>